<svg width="21" height="21" viewBox="0 0 21 21" fill="none" xmlns="http://www.w3.org/2000/svg">
<path fill-rule="evenodd" clip-rule="evenodd" d="M8.64941 4.77445C7.58855 4.77445 6.57113 5.19588 5.82099 5.94602C5.07084 6.69617 4.64941 7.71358 4.64941 8.77445C4.64941 9.83531 5.07084 10.8527 5.82099 11.6029C6.57113 12.353 7.58855 12.7744 8.64941 12.7744C9.71028 12.7744 10.7277 12.353 11.4778 11.6029C12.228 10.8527 12.6494 9.83531 12.6494 8.77445C12.6494 7.71358 12.228 6.69617 11.4778 5.94602C10.7277 5.19588 9.71028 4.77445 8.64941 4.77445ZM2.64941 8.77445C2.64929 7.83015 2.87206 6.89916 3.29959 6.05719C3.72711 5.21522 4.34734 4.48605 5.10981 3.92897C5.87228 3.3719 6.75548 3.00266 7.68756 2.85128C8.61964 2.6999 9.5743 2.77066 10.4739 3.0578C11.3735 3.34494 12.1926 3.84035 12.8646 4.50374C13.5366 5.16714 14.0425 5.97978 14.3413 6.87558C14.64 7.77138 14.7231 8.72504 14.5837 9.659C14.4444 10.593 14.0866 11.4808 13.5394 12.2504L18.3564 17.0674C18.5386 17.2561 18.6394 17.5087 18.6371 17.7708C18.6348 18.033 18.5296 18.2839 18.3442 18.4693C18.1588 18.6547 17.908 18.7598 17.6458 18.7621C17.3836 18.7644 17.131 18.6636 16.9424 18.4814L12.1264 13.6654C11.2288 14.3037 10.1728 14.6826 9.07409 14.7606C7.97542 14.8385 6.87649 14.6126 5.89771 14.1074C4.91894 13.6023 4.0981 12.8375 3.52514 11.8968C2.95217 10.9561 2.6492 9.87588 2.64941 8.77445Z" fill="#2B4061"/>
</svg>
